<svg xmlns="http://www.w3.org/2000/svg" xmlns:xlink="http://www.w3.org/1999/xlink" x="0" y="0" width="681.1428833007812" height="311.14288330078125" style="
        width:681.1428833007812px;
        height:311.14288330078125px;
        background: #FFF;
        fill: none;
">
        <svg xmlns="http://www.w3.org/2000/svg"/>
        
        <svg xmlns="http://www.w3.org/2000/svg" class="role-diagram-draw-area"><g class="shapes-region" style="stroke: black; fill: none;"><g class="composite-shape" data-amt="diagram/shapes/plot" transform="matrix(1,0,0,1,14,27)"><g><g><g class="test-xgi"><line x1="50.148095999999974" y1="0" x2="50.148095999999974" y2="270" fill="none" stroke="#c3c3c3" stroke-width="0.5"/><line x1="104.67404799999997" y1="0" x2="104.67404799999997" y2="270" fill="none" stroke="#c3c3c3" stroke-width="0.5"/><line x1="159.2" y1="0" x2="159.2" y2="270" fill="none" stroke="#c3c3c3" stroke-width="0.5"/><line x1="213.725952" y1="0" x2="213.725952" y2="270" fill="none" stroke="#c3c3c3" stroke-width="0.5"/><line x1="268.251904" y1="0" x2="268.251904" y2="270" fill="none" stroke="#c3c3c3" stroke-width="0.5"/><line x1="322.77785600000004" y1="0" x2="322.77785600000004" y2="270" fill="none" stroke="#c3c3c3" stroke-width="0.5"/><line x1="377.303808" y1="0" x2="377.303808" y2="270" fill="none" stroke="#c3c3c3" stroke-width="0.5"/></g><g class="test-ygi"><line x1="0" y1="241.15443199999999" x2="399.7142791748047" y2="241.15443199999999" fill="none" stroke="#c3c3c3" stroke-width="0.5"/><line x1="0" y1="186.62847999999997" x2="399.7142791748047" y2="186.62847999999997" fill="none" stroke="#c3c3c3" stroke-width="0.5"/><line x1="0" y1="132.10252799999998" x2="399.7142791748047" y2="132.10252799999998" fill="none" stroke="#c3c3c3" stroke-width="0.5"/><line x1="0" y1="77.57657599999996" x2="399.7142791748047" y2="77.57657599999996" fill="none" stroke="#c3c3c3" stroke-width="0.5"/><line x1="0" y1="23.05062399999997" x2="399.7142791748047" y2="23.05062399999997" fill="none" stroke="#c3c3c3" stroke-width="0.5"/></g></g><g><g class="test-xti" style="font-family: Asana-Math, Asana;"><line x1="0" y1="186.62847999999997" x2="395.7142791748047" y2="186.62847999999997" fill="none" stroke="rgb(50,50,50)" stroke-opacity="1" stroke-width="1"/><line x1="50.148095999999974" y1="182.62847999999997" x2="50.148095999999974" y2="190.62847999999997" fill="none" stroke="rgb(50,50,50)" stroke-opacity="1" stroke-width="1"/><line x1="104.67404799999997" y1="182.62847999999997" x2="104.67404799999997" y2="190.62847999999997" fill="none" stroke="rgb(50,50,50)" stroke-opacity="1" stroke-width="1"/><line x1="213.725952" y1="182.62847999999997" x2="213.725952" y2="190.62847999999997" fill="none" stroke="rgb(50,50,50)" stroke-opacity="1" stroke-width="1"/><line x1="268.251904" y1="182.62847999999997" x2="268.251904" y2="190.62847999999997" fill="none" stroke="rgb(50,50,50)" stroke-opacity="1" stroke-width="1"/><line x1="322.77785600000004" y1="182.62847999999997" x2="322.77785600000004" y2="190.62847999999997" fill="none" stroke="rgb(50,50,50)" stroke-opacity="1" stroke-width="1"/><line x1="377.303808" y1="182.62847999999997" x2="377.303808" y2="190.62847999999997" fill="none" stroke="rgb(50,50,50)" stroke-opacity="1" stroke-width="1"/><path d="M390.7142791748047,183.02847999999997 L398.7142791748047,186.62847999999997 L390.7142791748047,190.22847999999996 Z" stroke="none" stroke-width="1" fill="rgb(50,50,50)" fill-opacity="1"/></g><g class="test-yti" style="font-family: Asana-Math, Asana;"><line x1="159.2" y1="4" x2="159.2" y2="270" fill="none" stroke="rgb(50,50,50)" stroke-opacity="1" stroke-width="1"/><line x1="155.2" y1="241.15443199999999" x2="163.2" y2="241.15443199999999" fill="none" stroke="rgb(50,50,50)" stroke-opacity="1" stroke-width="1"/><line x1="155.2" y1="132.10252799999998" x2="163.2" y2="132.10252799999998" fill="none" stroke="rgb(50,50,50)" stroke-opacity="1" stroke-width="1"/><line x1="155.2" y1="77.57657599999996" x2="163.2" y2="77.57657599999996" fill="none" stroke="rgb(50,50,50)" stroke-opacity="1" stroke-width="1"/><line x1="155.2" y1="23.05062399999997" x2="163.2" y2="23.05062399999997" fill="none" stroke="rgb(50,50,50)" stroke-opacity="1" stroke-width="1"/><path d="M155.6,9 L159.2,1 L162.79999999999998,9 Z" stroke="none" stroke-width="1" fill="rgb(50,50,50)" fill-opacity="1"/></g><g class="test-plot-expression"><defs><clipPath id="cp9fkwa28bm"><rect x="1" y="1" width="397.7142791748047" height="268"/></clipPath></defs><g clip-path="url(#cp9fkwa28bm)"><g><g class="arrow-line"><path class="vector-plot real" stroke-dasharray="" d="  M159.2,186.63 L210.19,135.64" style="stroke: rgb(68, 128, 194); stroke-opacity: 1; stroke-width: 3;"/><g stroke="none" fill="rgb(68,128,194)" fill-opacity="1" transform="matrix(-0.7071067811865479,0.7071067811865471,-0.7071067811865471,-0.7071067811865479,213.72595199999995,132.10252799999998)" style="stroke: none; fill: rgb(68, 128, 194); stroke-width: 3;"><path d=" M14.29,-6.86 L0,0 L14.29,6.86 Z"/></g></g></g><path d=" M0.00,345.83 L0.50,345.33 L1.00,344.83 L1.50,344.33 L2.00,343.83 L2.50,343.33 L3.00,342.82 L3.50,342.32 L4.01,341.82 L4.51,341.32 L5.01,340.82 L5.51,340.32 L6.01,339.82 L6.51,339.32 L7.01,338.82 L7.51,338.32 L8.01,337.82 L8.51,337.32 L9.01,336.82 L9.51,336.32 L10.01,335.82 L10.51,335.32 L11.01,334.81 L11.51,334.31 L12.02,333.81 L12.52,333.31 L13.02,332.81 L13.52,332.31 L14.02,331.81 L14.52,331.31 L15.02,330.81 L15.52,330.31 L16.02,329.81 L16.52,329.31 L17.02,328.81 L17.52,328.31 L18.02,327.81 L18.52,327.31 L19.02,326.80 L19.52,326.30 L20.03,325.80 L20.53,325.30 L21.03,324.80 L21.53,324.30 L22.03,323.80 L22.53,323.30 L23.03,322.80 L23.53,322.30 L24.03,321.80 L24.53,321.30 L25.03,320.80 L25.53,320.30 L26.03,319.80 L26.53,319.30 L27.03,318.79 L27.53,318.29 L28.04,317.79 L28.54,317.29 L29.04,316.79 L29.54,316.29 L30.04,315.79 L30.54,315.29 L31.04,314.79 L31.54,314.29 L32.04,313.79 L32.54,313.29 L33.04,312.79 L33.54,312.29 L34.04,311.79 L34.54,311.29 L35.04,310.78 L35.54,310.28 L36.05,309.78 L36.55,309.28 L37.05,308.78 L37.55,308.28 L38.05,307.78 L38.55,307.28 L39.05,306.78 L39.55,306.28 L40.05,305.78 L40.55,305.28 L41.05,304.78 L41.55,304.28 L42.05,303.78 L42.55,303.28 L43.05,302.77 L43.55,302.27 L44.06,301.77 L44.56,301.27 L45.06,300.77 L45.56,300.27 L46.06,299.77 L46.56,299.27 L47.06,298.77 L47.56,298.27 L48.06,297.77 L48.56,297.27 L49.06,296.77 L49.56,296.27 L50.06,295.77 L50.56,295.27 L51.06,294.76 L51.56,294.26 L52.07,293.76 L52.57,293.26 L53.07,292.76 L53.57,292.26 L54.07,291.76 L54.57,291.26 L55.07,290.76 L55.57,290.26 L56.07,289.76 L56.57,289.26 L57.07,288.76 L57.57,288.26 L58.07,287.76 L58.57,287.26 L59.07,286.75 L59.57,286.25 L60.08,285.75 L60.58,285.25 L61.08,284.75 L61.58,284.25 L62.08,283.75 L62.58,283.25 L63.08,282.75 L63.58,282.25 L64.08,281.75 L64.58,281.25 L65.08,280.75 L65.58,280.25 L66.08,279.75 L66.58,279.25 L67.08,278.74 L67.58,278.24 L68.09,277.74 L68.59,277.24 L69.09,276.74 L69.59,276.24 L70.09,275.74 L70.59,275.24 L71.09,274.74 L71.59,274.24 L72.09,273.74 L72.59,273.24 L73.09,272.74 L73.59,272.24 L74.09,271.74 L74.59,271.24 L75.09,270.73 L75.59,270.23 L76.10,269.73 L76.60,269.23 L77.10,268.73 L77.60,268.23 L78.10,267.73 L78.60,267.23 L79.10,266.73 L79.60,266.23 L80.10,265.73 L80.60,265.23 L81.10,264.73 L81.60,264.23 L82.10,263.73 L82.60,263.23 L83.10,262.72 L83.60,262.22 L84.11,261.72 L84.61,261.22 L85.11,260.72 L85.61,260.22 L86.11,259.72 L86.61,259.22 L87.11,258.72 L87.61,258.22 L88.11,257.72 L88.61,257.22 L89.11,256.72 L89.61,256.22 L90.11,255.72 L90.61,255.22 L91.11,254.71 L91.61,254.21 L92.12,253.71 L92.62,253.21 L93.12,252.71 L93.62,252.21 L94.12,251.71 L94.62,251.21 L95.12,250.71 L95.62,250.21 L96.12,249.71 L96.62,249.21 L97.12,248.71 L97.62,248.21 L98.12,247.71 L98.62,247.21 L99.12,246.70 L99.62,246.20 L100.13,245.70 L100.63,245.20 L101.13,244.70 L101.63,244.20 L102.13,243.70 L102.63,243.20 L103.13,242.70 L103.63,242.20 L104.13,241.70 L104.63,241.20 L105.13,240.70 L105.63,240.20 L106.13,239.70 L106.63,239.20 L107.13,238.69 L107.63,238.19 L108.14,237.69 L108.64,237.19 L109.14,236.69 L109.64,236.19 L110.14,235.69 L110.64,235.19 L111.14,234.69 L111.64,234.19 L112.14,233.69 L112.64,233.19 L113.14,232.69 L113.64,232.19 L114.14,231.69 L114.64,231.19 L115.14,230.68 L115.64,230.18 L116.15,229.68 L116.65,229.18 L117.15,228.68 L117.65,228.18 L118.15,227.68 L118.65,227.18 L119.15,226.68 L119.65,226.18 L120.15,225.68 L120.65,225.18 L121.15,224.68 L121.65,224.18 L122.15,223.68 L122.65,223.18 L123.15,222.67 L123.65,222.17 L124.16,221.67 L124.66,221.17 L125.16,220.67 L125.66,220.17 L126.16,219.67 L126.66,219.17 L127.16,218.67 L127.66,218.17 L128.16,217.67 L128.66,217.17 L129.16,216.67 L129.66,216.17 L130.16,215.67 L130.66,215.17 L131.16,214.66 L131.66,214.16 L132.17,213.66 L132.67,213.16 L133.17,212.66 L133.67,212.16 L134.17,211.66 L134.67,211.16 L135.17,210.66 L135.67,210.16 L136.17,209.66 L136.67,209.16 L137.17,208.66 L137.67,208.16 L138.17,207.66 L138.67,207.16 L139.17,206.65 L139.67,206.15 L140.18,205.65 L140.68,205.15 L141.18,204.65 L141.68,204.15 L142.18,203.65 L142.68,203.15 L143.18,202.65 L143.68,202.15 L144.18,201.65 L144.68,201.15 L145.18,200.65 L145.68,200.15 L146.18,199.65 L146.68,199.14 L147.18,198.64 L147.68,198.14 L148.19,197.64 L148.69,197.14 L149.19,196.64 L149.69,196.14 L150.19,195.64 L150.69,195.14 L151.19,194.64 L151.69,194.14 L152.19,193.64 L152.69,193.14 L153.19,192.64 L153.69,192.14 L154.19,191.64 L154.69,191.13 L155.19,190.63 L155.69,190.13 L156.20,189.63 L156.70,189.13 L157.20,188.63 L157.70,188.13 L158.20,187.63 L158.70,187.13 L159.20,186.63 L159.70,186.13 L160.20,185.63 L160.70,185.13 L161.20,184.63 L161.70,184.13 L162.20,183.63 L162.70,183.12 L163.20,182.62 L163.70,182.12 L164.21,181.62 L164.71,181.12 L165.21,180.62 L165.71,180.12 L166.21,179.62 L166.71,179.12 L167.21,178.62 L167.71,178.12 L168.21,177.62 L168.71,177.12 L169.21,176.62 L169.71,176.12 L170.21,175.62 L170.71,175.11 L171.21,174.61 L171.71,174.11 L172.22,173.61 L172.72,173.11 L173.22,172.61 L173.72,172.11 L174.22,171.61 L174.72,171.11 L175.22,170.61 L175.72,170.11 L176.22,169.61 L176.72,169.11 L177.22,168.61 L177.72,168.11 L178.22,167.61 L178.72,167.10 L179.22,166.60 L179.72,166.10 L180.23,165.60 L180.73,165.10 L181.23,164.60 L181.73,164.10 L182.23,163.60 L182.73,163.10 L183.23,162.60 L183.73,162.10 L184.23,161.60 L184.73,161.10 L185.23,160.60 L185.73,160.10 L186.23,159.60 L186.73,159.09 L187.23,158.59 L187.73,158.09 L188.24,157.59 L188.74,157.09 L189.24,156.59 L189.74,156.09 L190.24,155.59 L190.74,155.09 L191.24,154.59 L191.74,154.09 L192.24,153.59 L192.74,153.09 L193.24,152.59 L193.74,152.09 L194.24,151.59 L194.74,151.08 L195.24,150.58 L195.74,150.08 L196.25,149.58 L196.75,149.08 L197.25,148.58 L197.75,148.08 L198.25,147.58 L198.75,147.08 L199.25,146.58 L199.75,146.08 L200.25,145.58 L200.75,145.08 L201.25,144.58 L201.75,144.08 L202.25,143.58 L202.75,143.07 L203.25,142.57 L203.75,142.07 L204.26,141.57 L204.76,141.07 L205.26,140.57 L205.76,140.07 L206.26,139.57 L206.76,139.07 L207.26,138.57 L207.76,138.07 L208.26,137.57 L208.76,137.07 L209.26,136.57 L209.76,136.07 L210.26,135.57 L210.76,135.06 L211.26,134.56 L211.76,134.06 L212.27,133.56 L212.77,133.06 L213.27,132.56 L213.77,132.06 L214.27,131.56 L214.77,131.06 L215.27,130.56 L215.77,130.06 L216.27,129.56 L216.77,129.06 L217.27,128.56 L217.77,128.06 L218.27,127.56 L218.77,127.05 L219.27,126.55 L219.77,126.05 L220.28,125.55 L220.78,125.05 L221.28,124.55 L221.78,124.05 L222.28,123.55 L222.78,123.05 L223.28,122.55 L223.78,122.05 L224.28,121.55 L224.78,121.05 L225.28,120.55 L225.78,120.05 L226.28,119.55 L226.78,119.04 L227.28,118.54 L227.78,118.04 L228.29,117.54 L228.79,117.04 L229.29,116.54 L229.79,116.04 L230.29,115.54 L230.79,115.04 L231.29,114.54 L231.79,114.04 L232.29,113.54 L232.79,113.04 L233.29,112.54 L233.79,112.04 L234.29,111.54 L234.79,111.03 L235.29,110.53 L235.79,110.03 L236.30,109.53 L236.80,109.03 L237.30,108.53 L237.80,108.03 L238.30,107.53 L238.80,107.03 L239.30,106.53 L239.80,106.03 L240.30,105.53 L240.80,105.03 L241.30,104.53 L241.80,104.03 L242.30,103.53 L242.80,103.02 L243.30,102.52 L243.80,102.02 L244.31,101.52 L244.81,101.02 L245.31,100.52 L245.81,100.02 L246.31,99.52 L246.81,99.02 L247.31,98.52 L247.81,98.02 L248.31,97.52 L248.81,97.02 L249.31,96.52 L249.81,96.02 L250.31,95.52 L250.81,95.01 L251.31,94.51 L251.81,94.01 L252.32,93.51 L252.82,93.01 L253.32,92.51 L253.82,92.01 L254.32,91.51 L254.82,91.01 L255.32,90.51 L255.82,90.01 L256.32,89.51 L256.82,89.01 L257.32,88.51 L257.82,88.01 L258.32,87.51 L258.82,87.00 L259.32,86.50 L259.83,86.00 L260.33,85.50 L260.83,85.00 L261.33,84.50 L261.83,84.00 L262.33,83.50 L262.83,83.00 L263.33,82.50 L263.83,82.00 L264.33,81.50 L264.83,81.00 L265.33,80.50 L265.83,80.00 L266.33,79.50 L266.83,78.99 L267.33,78.49 L267.84,77.99 L268.34,77.49 L268.84,76.99 L269.34,76.49 L269.84,75.99 L270.34,75.49 L270.84,74.99 L271.34,74.49 L271.84,73.99 L272.34,73.49 L272.84,72.99 L273.34,72.49 L273.84,71.99 L274.34,71.49 L274.84,70.98 L275.34,70.48 L275.85,69.98 L276.35,69.48 L276.85,68.98 L277.35,68.48 L277.85,67.98 L278.35,67.48 L278.85,66.98 L279.35,66.48 L279.85,65.98 L280.35,65.48 L280.85,64.98 L281.35,64.48 L281.85,63.98 L282.35,63.48 L282.85,62.97 L283.35,62.47 L283.86,61.97 L284.36,61.47 L284.86,60.97 L285.36,60.47 L285.86,59.97 L286.36,59.47 L286.86,58.97 L287.36,58.47 L287.86,57.97 L288.36,57.47 L288.86,56.97 L289.36,56.47 L289.86,55.97 L290.36,55.47 L290.86,54.96 L291.36,54.46 L291.87,53.96 L292.37,53.46 L292.87,52.96 L293.37,52.46 L293.87,51.96 L294.37,51.46 L294.87,50.96 L295.37,50.46 L295.87,49.96 L296.37,49.46 L296.87,48.96 L297.37,48.46 L297.87,47.96 L298.37,47.46 L298.87,46.95 L299.37,46.45 L299.88,45.95 L300.38,45.45 L300.88,44.95 L301.38,44.45 L301.88,43.95 L302.38,43.45 L302.88,42.95 L303.38,42.45 L303.88,41.95 L304.38,41.45 L304.88,40.95 L305.38,40.45 L305.88,39.95 L306.38,39.45 L306.88,38.94 L307.38,38.44 L307.89,37.94 L308.39,37.44 L308.89,36.94 L309.39,36.44 L309.89,35.94 L310.39,35.44 L310.89,34.94 L311.39,34.44 L311.89,33.94 L312.39,33.44 L312.89,32.94 L313.39,32.44 L313.89,31.94 L314.39,31.44 L314.89,30.93 L315.39,30.43 L315.90,29.93 L316.40,29.43 L316.90,28.93 L317.40,28.43 L317.90,27.93 L318.40,27.43 L318.90,26.93 L319.40,26.43 L319.90,25.93 L320.40,25.43 L320.90,24.93 L321.40,24.43 L321.90,23.93 L322.40,23.43 L322.90,22.92 L323.40,22.42 L323.91,21.92 L324.41,21.42 L324.91,20.92 L325.41,20.42 L325.91,19.92 L326.41,19.42 L326.91,18.92 L327.41,18.42 L327.91,17.92 L328.41,17.42 L328.91,16.92 L329.41,16.42 L329.91,15.92 L330.41,15.42 L330.91,14.91 L331.41,14.41 L331.92,13.91 L332.42,13.41 L332.92,12.91 L333.42,12.41 L333.92,11.91 L334.42,11.41 L334.92,10.91 L335.42,10.41 L335.92,9.91 L336.42,9.41 L336.92,8.91 L337.42,8.41 L337.92,7.91 L338.42,7.41 L338.92,6.90 L339.42,6.40 L339.93,5.90 L340.43,5.40 L340.93,4.90 L341.43,4.40 L341.93,3.90 L342.43,3.40 L342.93,2.90 L343.43,2.40 L343.93,1.90 L344.43,1.40 L344.93,0.90 L345.43,0.40 L345.93,-0.10 L346.43,-0.60 L346.93,-1.11 L347.43,-1.61 L347.94,-2.11 L348.44,-2.61 L348.94,-3.11 L349.44,-3.61 L349.94,-4.11 L350.44,-4.61 L350.94,-5.11 L351.44,-5.61 L351.94,-6.11 L352.44,-6.61 L352.94,-7.11 L353.44,-7.61 L353.94,-8.11 L354.44,-8.61 L354.94,-9.12 L355.44,-9.62 L355.95,-10.12 L356.45,-10.62 L356.95,-11.12 L357.45,-11.62 L357.95,-12.12 L358.45,-12.62 L358.95,-13.12 L359.45,-13.62 L359.95,-14.12 L360.45,-14.62 L360.95,-15.12 L361.45,-15.62 L361.95,-16.12 L362.45,-16.62 L362.95,-17.13 L363.45,-17.63 L363.96,-18.13 L364.46,-18.63 L364.96,-19.13 L365.46,-19.63 L365.96,-20.13 L366.46,-20.63 L366.96,-21.13 L367.46,-21.63 L367.96,-22.13 L368.46,-22.63 L368.96,-23.13 L369.46,-23.63 L369.96,-24.13 L370.46,-24.63 L370.96,-25.14 L371.46,-25.64 L371.97,-26.14 L372.47,-26.64 L372.97,-27.14 L373.47,-27.64 L373.97,-28.14 L374.47,-28.64 L374.97,-29.14 L375.47,-29.64 L375.97,-30.14 L376.47,-30.64 L376.97,-31.14 L377.47,-31.64 L377.97,-32.14 L378.47,-32.64 L378.97,-33.15 L379.47,-33.65 L379.98,-34.15 L380.48,-34.65 L380.98,-35.15 L381.48,-35.65 L381.98,-36.15 L382.48,-36.65 L382.98,-37.15 L383.48,-37.65 L383.98,-38.15 L384.48,-38.65 L384.98,-39.15 L385.48,-39.65 L385.98,-40.15 L386.48,-40.65 L386.98,-41.16 L387.48,-41.66 L387.99,-42.16 L388.49,-42.66 L388.99,-43.16 L389.49,-43.66 L389.99,-44.16 L390.49,-44.66 L390.99,-45.16 L391.49,-45.66 L391.99,-46.16 L392.49,-46.66 L392.99,-47.16 L393.49,-47.66 L393.99,-48.16 L394.49,-48.66 L394.99,-49.17 L395.49,-49.67 L396.00,-50.17 L396.50,-50.67 L397.00,-51.17 L397.50,-51.67 L398.00,-52.17 L398.50,-52.67 L399.00,-53.17 L399.50,-53.67 L399.71,-53.89" style="stroke-width: 2; stroke: rgb(60, 180, 75); stroke-opacity: 0.8;"/></g></g><g class="test-xtl" style="font-family: &quot;Open Sans&quot;, verdana, arial, sans-serif;"><text text-anchor="middle" font-size="11" dominant-baseline="hanging" stroke="none" fill="rgb(50,50,50)" fill-opacity="1" x="47.013095999999976" y="193.62847999999997">-2</text><text text-anchor="middle" font-size="11" dominant-baseline="hanging" stroke="none" fill="rgb(50,50,50)" fill-opacity="1" x="101.53904799999997" y="193.62847999999997">-1</text><text text-anchor="middle" font-size="11" dominant-baseline="hanging" stroke="none" fill="rgb(50,50,50)" fill-opacity="1" x="213.725952" y="193.62847999999997">1</text><text text-anchor="middle" font-size="11" dominant-baseline="hanging" stroke="none" fill="rgb(50,50,50)" fill-opacity="1" x="268.251904" y="193.62847999999997">2</text><text text-anchor="middle" font-size="11" dominant-baseline="hanging" stroke="none" fill="rgb(50,50,50)" fill-opacity="1" x="322.77785600000004" y="193.62847999999997">3</text><text text-anchor="middle" font-size="11" dominant-baseline="hanging" stroke="none" fill="rgb(50,50,50)" fill-opacity="1" x="377.303808" y="193.62847999999997">4</text><text text-anchor="middle" font-size="11" dominant-baseline="hanging" stroke="none" fill="rgb(50,50,50)" fill-opacity="1" x="151.2" y="191.62847999999997">0</text></g><g class="test-ytl" style="font-family: &quot;Open Sans&quot;, verdana, arial, sans-serif;"><text text-anchor="end" dominant-baseline="middle" font-size="11" stroke="none" fill="rgb(50,50,50)" fill-opacity="1" x="151.2" y="241.15443199999999">-1</text><text text-anchor="end" dominant-baseline="middle" font-size="11" stroke="none" fill="rgb(50,50,50)" fill-opacity="1" x="151.2" y="132.10252799999998">1</text><text text-anchor="end" dominant-baseline="middle" font-size="11" stroke="none" fill="rgb(50,50,50)" fill-opacity="1" x="151.2" y="77.57657599999996">2</text><text text-anchor="end" dominant-baseline="middle" font-size="11" stroke="none" fill="rgb(50,50,50)" fill-opacity="1" x="151.2" y="23.05062399999997">3</text></g><rect class="real" x="1" y="1" width="397.7142791748047" height="268" style="fill: transparent; stroke: none;"/></g></g></g><g/></g><g/><g/><g/></svg>
        <svg xmlns="http://www.w3.org/2000/svg" xmlns:xlink="http://www.w3.org/1999/xlink" width="680" height="310" style="width:680px;height:310px;font-family:LatinModern-Math, LatinModern, Asana-Math, Asana;background:#FFF;"><g><g><g><g transform="matrix(1,0,0,1,291.5714569091797,123.00000762939453)"><path transform="matrix(0.018,0,0,-0.018,0,0)" d="M490 404C490 422 476 431 461 431C451 431 435 425 426 410C424 405 416 374 412 356L392 276L347 96C343 81 300 11 234 11C183 11 172 55 172 92C172 138 189 200 223 288C239 329 243 340 243 360C243 405 211 442 161 442C66 442 29 297 29 288C29 278 41 278 41 278C51 278 52 280 57 296C84 390 124 420 158 420C166 420 183 420 183 388C183 363 173 337 166 318C126 212 108 155 108 108C108 19 171 -11 230 -11C269 -11 303 6 331 34C318 -18 306 -67 266 -120C240 -154 202 -183 156 -183C142 -183 97 -180 80 -141C96 -141 109 -141 123 -129C133 -120 143 -107 143 -88C143 -57 116 -53 106 -53C83 -53 50 -69 50 -118C50 -168 94 -205 156 -205C259 -205 362 -114 390 -1L486 381C490 395 490 397 490 404Z" stroke="rgb(0,0,0)" stroke-opacity="1" stroke-width="8" fill="rgb(0,0,0)" fill-opacity="1"></path></g></g><g><g transform="matrix(1,0,0,1,305.7857208251953,123.00000762939453)"><path transform="matrix(0.018,0,0,-0.018,0,0)" d="M722 347C722 358 713 367 702 367L76 367C65 367 56 358 56 347C56 336 65 327 76 327L702 327C713 327 722 336 722 347ZM722 153C722 164 713 173 702 173L76 173C65 173 56 164 56 153C56 142 65 133 76 133L702 133C713 133 722 142 722 153Z" stroke="rgb(0,0,0)" stroke-opacity="1" stroke-width="8" fill="rgb(0,0,0)" fill-opacity="1"></path></g></g><g><g transform="matrix(1,0,0,1,325.1875457763672,123.00000762939453)"><path transform="matrix(0.018,0,0,-0.018,0,0)" d="M527 376C527 428 468 442 434 442C376 442 341 389 329 366C304 432 250 442 221 442C117 442 60 313 60 288C60 278 72 278 72 278C80 278 83 280 85 289C119 395 185 420 219 420C238 420 273 411 273 353C273 322 256 255 219 115C203 53 168 11 124 11C118 11 95 11 74 24C99 29 121 50 121 78C121 105 99 113 84 113C54 113 29 87 29 55C29 9 79 -11 123 -11C189 -11 225 59 228 65C240 28 276 -11 336 -11C439 -11 496 118 496 143C496 153 487 153 484 153C475 153 473 149 471 142C438 35 370 11 338 11C299 11 283 43 283 77C283 99 289 121 300 165L334 302C340 328 363 420 433 420C438 420 462 420 483 407C455 402 435 377 435 353C435 337 446 318 473 318C495 318 527 336 527 376Z" stroke="rgb(0,0,0)" stroke-opacity="1" stroke-width="8" fill="rgb(0,0,0)" fill-opacity="1"></path></g></g></g></g><g><g><g><g transform="matrix(1,0,0,1,231.57142639160156,181.00000762939453)"><path transform="matrix(0.018,0,0,-0.018,0,0)" d="M543 143C543 153 534 153 531 153C521 153 520 149 517 135C503 79 484 11 442 11C421 11 411 24 411 57C411 79 423 126 431 161L459 269C462 284 472 322 476 337C481 360 491 398 491 404C491 422 477 431 462 431C457 431 431 430 423 396L348 95C347 91 307 11 234 11C182 11 172 56 172 93C172 149 200 228 226 297C238 327 243 341 243 360C243 405 211 442 161 442C66 442 29 297 29 288C29 278 41 278 41 278C51 278 52 280 57 296C82 383 120 420 158 420C167 420 183 419 183 387C183 363 172 334 166 319C129 220 108 158 108 109C108 14 177 -11 231 -11C297 -11 333 34 350 56C361 15 396 -11 439 -11C474 -11 497 12 513 44C530 80 543 143 543 143Z" stroke="rgb(0,0,0)" stroke-opacity="1" stroke-width="8" fill="rgb(0,0,0)" fill-opacity="1"></path></g></g></g></g></svg>
</svg>
