<svg xmlns="http://www.w3.org/2000/svg" xmlns:xlink="http://www.w3.org/1999/xlink" x="0" y="0" width="662" height="425.421875" style="
        width:662px;
        height:425.421875px;
        background: #FFF;
        fill: none;
">
        <svg xmlns="http://www.w3.org/2000/svg"/>
        
        <svg xmlns="http://www.w3.org/2000/svg" class="role-diagram-draw-area"><g class="shapes-region" style="stroke: black; fill: none;"><g class="composite-shape axis2d" style="stroke-width: 1; stroke: rgb(0, 0, 0);"><path class="real" d=" M148,254.25 L471.71,254.25 M179.43,40 L179.43,411.25"/><path d=" M464.71,249.25 L471.71,254.25 L464.71,259.25"/><path d=" M174.43,47 L179.43,40 L184.43,47"/></g><g class="arrow-line"><path class="connection real" stroke-dasharray="" d="  M378.06,127.88 L378.06,252.88" style="stroke: rgb(0, 0, 0); stroke-width: 1; fill: none; fill-opacity: 1;"/></g><g class="arrow-line"><path class="connection real" stroke-dasharray="" d="  M377.06,120.94 L180.71,120.94" style="stroke: rgb(0, 0, 0); stroke-width: 1; fill: none; fill-opacity: 1;"/></g><g class="composite-shape"><path class="real" d=" M372.12,121.94 C372.12,118.66 374.78,116 378.06,116 C381.34,116 384,118.66 384,121.94 C384,125.22 381.34,127.88 378.06,127.88 C374.78,127.88 372.12,125.22 372.12,121.94 Z" style="stroke-width: 1; stroke: rgb(0, 0, 0); fill: rgb(74, 144, 226); fill-opacity: 1;"/></g><g class="arrow-line"><path class="connection real" stroke-dasharray="" d="  M180.37,253.2 L376.39,123.05" style="stroke: rgb(0, 0, 0); stroke-width: 1; fill: none; fill-opacity: 1;"/><g stroke="#000" transform="matrix(-0.8331143600534537,0.5531007711735034,-0.5531007711735034,-0.8331143600534537,378.0580368041992,121.94196319580078)" style="stroke: rgb(0, 0, 0); stroke-width: 1;"><path d=" M10.93,-3.29 Q4.96,-0.45 0,0 Q4.96,0.45 10.93,3.29"/></g></g><g class="composite-shape"><path class="real" d=" M209.23,234.17 C215.12,238.68 219.36,245.37 220.62,253.22 L191,258 Z" style="stroke-width: 1; stroke: none; fill: none; fill-opacity: 1;"/><path class="real" d=" M209.23,234.17 C215.12,238.68 219.36,245.37 220.62,253.22" style="stroke-width: 1; stroke: rgb(0, 0, 0); fill: none; fill-opacity: 1;"/></g><g class="arrow-line"><path class="connection real" stroke-dasharray="" d="  M378.06,256.88 L378.06,381.88" style="stroke: rgb(0, 0, 0); stroke-width: 1; fill: none; fill-opacity: 1;"/></g><g class="arrow-line"><path class="connection real" stroke-dasharray="" d="  M378.06,381.88 L181.71,381.88" style="stroke: rgb(0, 0, 0); stroke-width: 1; fill: none; fill-opacity: 1;"/></g><g class="arrow-line"><path class="connection real" stroke-dasharray="" d="  M179.43,254.25 L376.38,380.8" style="stroke: rgb(0, 0, 0); stroke-width: 1; fill: none; fill-opacity: 1;"/><g stroke="#000" transform="matrix(-0.8413221512344805,-0.5405340302350871,0.5405340302350871,-0.8413221512344805,378.0580368041992,381.88392639160156)" style="stroke: rgb(0, 0, 0); stroke-width: 1;"><path d=" M10.93,-3.29 Q4.96,-0.45 0,0 Q4.96,0.45 10.93,3.29"/></g></g><g class="composite-shape"><path class="real" d=" M220.62,253.22 C219.71,260.59 216.08,267.62 209.94,272.68 L190.84,249.54 Z" style="stroke-width: 1; stroke: none; fill: none; fill-opacity: 1;"/><path class="real" d=" M220.62,253.22 C219.71,260.59 216.08,267.62 209.94,272.68" style="stroke-width: 1; stroke: rgb(0, 0, 0); fill: none; fill-opacity: 1;"/></g><g class="composite-shape"><path class="real" d=" M372.12,381.88 C372.12,378.6 374.78,375.94 378.06,375.94 C381.34,375.94 384,378.6 384,381.88 C384,385.17 381.34,387.83 378.06,387.83 C374.78,387.83 372.12,385.17 372.12,381.88 Z" style="stroke-width: 1; stroke: rgb(0, 0, 0); fill: rgb(208, 2, 27); fill-opacity: 1;"/></g><g/></g><g/><g/><g/></svg>
        <svg xmlns="http://www.w3.org/2000/svg" xmlns:xlink="http://www.w3.org/1999/xlink" width="660" height="423.421875" style="width:660px;height:423.421875px;font-family:LatinModern-Math, LatinModern, Asana-Math, Asana;background:#FFF;"><g><g><g><g><g><g><text x="488" y="248" style="white-space:pre;stroke:none;fill:rgb(0,0,0);fill-opacity:1;font-size:15px;font-family:&quot;Courier New&quot;, Courier, monospace;font-weight:400;font-style:normal;dominant-baseline:text-before-edge;text-decoration:none solid rgb(0, 0, 0);">Re</text></g></g></g></g><g><g transform="matrix(1,0,0,1,506.0078125,261)"><path transform="matrix(0.017,0,0,-0.017,0,0)" d="M332 -238C332 -235 330 -232 328 -230C224 -152 155 48 155 208L155 292C155 452 224 652 328 730C330 732 332 735 332 738C332 743 327 748 322 748C320 748 318 747 316 746C206 663 101 463 101 292L101 208C101 37 206 -163 316 -246C318 -247 320 -248 322 -248C327 -248 332 -243 332 -238Z" stroke="rgb(0,0,0)" stroke-opacity="1" stroke-width="8" fill="rgb(0,0,0)" fill-opacity="1"></path></g></g><g><g transform="matrix(1,0,0,1,512.625,260.5)"><path transform="matrix(0.017,0,0,-0.017,0,0)" d="M467 432C467 442 456 442 456 442C449 442 446 440 441 431C411 383 390 367 366 367C342 367 330 382 315 399C296 422 279 442 246 442C171 442 125 349 125 328C125 323 128 317 137 317C146 317 148 322 150 328C169 374 227 375 235 375C256 375 275 368 298 360C338 345 349 345 375 345C339 302 255 230 236 214L146 130C78 63 43 6 43 -1C43 -11 55 -11 55 -11C63 -11 65 -9 71 2C94 37 124 64 156 64C179 64 189 55 214 26C231 5 249 -11 278 -11C377 -11 435 116 435 143C435 148 431 153 423 153C414 153 412 147 409 140C386 75 322 56 289 56C269 56 251 62 230 69C196 82 181 86 160 86C160 86 142 86 133 83C187 141 216 166 252 197C252 197 314 251 350 287C445 380 467 428 467 432Z" stroke="rgb(0,0,0)" stroke-opacity="1" stroke-width="8" fill="rgb(0,0,0)" fill-opacity="1"></path></g></g><g><g transform="matrix(1,0,0,1,520.53125,261)"><path transform="matrix(0.017,0,0,-0.017,0,0)" d="M288 208L288 292C288 463 183 663 73 746C71 747 69 748 67 748C62 748 57 743 57 738C57 735 59 732 61 730C165 652 234 452 234 292L234 208C234 48 165 -152 61 -230C59 -232 57 -235 57 -238C57 -243 62 -248 67 -248C69 -248 71 -247 73 -246C183 -163 288 37 288 208Z" stroke="rgb(0,0,0)" stroke-opacity="1" stroke-width="8" fill="rgb(0,0,0)" fill-opacity="1"></path></g></g></g></g><g><g><g><g><g><g><text x="161" y="10" style="white-space:pre;stroke:none;fill:rgb(0,0,0);fill-opacity:1;font-size:15px;font-family:&quot;Courier New&quot;, Courier, monospace;font-weight:400;font-style:normal;dominant-baseline:text-before-edge;text-decoration:none solid rgb(0, 0, 0);">Im</text></g></g></g></g><g><g transform="matrix(1,0,0,1,179.0078125,23)"><path transform="matrix(0.017,0,0,-0.017,0,0)" d="M332 -238C332 -235 330 -232 328 -230C224 -152 155 48 155 208L155 292C155 452 224 652 328 730C330 732 332 735 332 738C332 743 327 748 322 748C320 748 318 747 316 746C206 663 101 463 101 292L101 208C101 37 206 -163 316 -246C318 -247 320 -248 322 -248C327 -248 332 -243 332 -238Z" stroke="rgb(0,0,0)" stroke-opacity="1" stroke-width="8" fill="rgb(0,0,0)" fill-opacity="1"></path></g></g><g><g transform="matrix(1,0,0,1,185.625,22.5)"><path transform="matrix(0.017,0,0,-0.017,0,0)" d="M467 432C467 442 456 442 456 442C449 442 446 440 441 431C411 383 390 367 366 367C342 367 330 382 315 399C296 422 279 442 246 442C171 442 125 349 125 328C125 323 128 317 137 317C146 317 148 322 150 328C169 374 227 375 235 375C256 375 275 368 298 360C338 345 349 345 375 345C339 302 255 230 236 214L146 130C78 63 43 6 43 -1C43 -11 55 -11 55 -11C63 -11 65 -9 71 2C94 37 124 64 156 64C179 64 189 55 214 26C231 5 249 -11 278 -11C377 -11 435 116 435 143C435 148 431 153 423 153C414 153 412 147 409 140C386 75 322 56 289 56C269 56 251 62 230 69C196 82 181 86 160 86C160 86 142 86 133 83C187 141 216 166 252 197C252 197 314 251 350 287C445 380 467 428 467 432Z" stroke="rgb(0,0,0)" stroke-opacity="1" stroke-width="8" fill="rgb(0,0,0)" fill-opacity="1"></path></g></g><g><g transform="matrix(1,0,0,1,193.53125,23)"><path transform="matrix(0.017,0,0,-0.017,0,0)" d="M288 208L288 292C288 463 183 663 73 746C71 747 69 748 67 748C62 748 57 743 57 738C57 735 59 732 61 730C165 652 234 452 234 292L234 208C234 48 165 -152 61 -230C59 -232 57 -235 57 -238C57 -243 62 -248 67 -248C69 -248 71 -247 73 -246C183 -163 288 37 288 208Z" stroke="rgb(0,0,0)" stroke-opacity="1" stroke-width="8" fill="rgb(0,0,0)" fill-opacity="1"></path></g></g></g></g><g><g><g><g transform="matrix(1,0,0,1,399,114.09375)"><path transform="matrix(0.017,0,0,-0.017,0,0)" d="M436 377C436 412 404 442 353 442C288 442 244 393 225 365C217 410 181 442 134 442C88 442 69 403 60 385C42 351 29 291 29 288C29 278 41 278 41 278C51 278 52 279 58 301C75 372 95 420 131 420C148 420 162 412 162 374C162 353 159 342 146 290L88 59C85 44 79 21 79 16C79 -2 93 -11 108 -11C120 -11 138 -3 145 17C147 21 181 157 185 175L217 305C221 318 249 365 273 387C281 394 310 420 353 420C379 420 395 408 395 408C365 403 343 379 343 353C343 337 354 318 381 318C408 318 436 341 436 377ZM881 107C881 113 875 120 869 120C864 120 862 118 856 110C777 11 668 11 656 11C578 11 569 95 569 127C569 139 570 170 585 231L638 231C667 231 741 233 791 254C861 284 866 343 866 357C866 401 828 442 759 442C648 442 497 345 497 170C497 68 556 -11 654 -11C797 -11 881 95 881 107ZM833 357C833 253 673 253 632 253L591 253C630 405 733 420 759 420C806 420 833 391 833 357Z" stroke="rgb(0,0,0)" stroke-opacity="1" stroke-width="8" fill="rgb(0,0,0)" fill-opacity="1"></path></g></g><g><g><g><g><g transform="matrix(1,0,0,1,415.5703125,107.4)"><path transform="matrix(0.0119,0,0,-0.0119,0,0)" d="M284 625C284 645 270 661 247 661C220 661 193 635 193 608C193 589 207 572 231 572C254 572 284 595 284 625ZM293 143C293 153 284 153 281 153C271 153 271 150 266 135C248 72 215 11 164 11C147 11 140 21 140 44C140 69 146 83 169 144L208 249C220 278 220 280 230 307C238 327 243 341 243 360C243 405 211 442 161 442C67 442 29 297 29 288C29 278 41 278 41 278C51 278 52 280 57 296C84 390 124 420 158 420C166 420 183 420 183 388C183 367 176 346 172 336C164 310 119 194 103 151C93 125 80 92 80 71C80 24 114 -11 162 -11C256 -11 293 134 293 143ZM800 500C800 566 782 705 680 705C541 705 387 423 387 194C387 100 416 -11 507 -11C648 -11 800 276 800 500ZM734 562C734 513 726 462 702 363L493 363C510 427 530 507 570 578C597 627 634 683 679 683C728 683 734 619 734 562ZM693 331C682 285 661 200 623 128C588 60 550 11 507 11C474 11 453 40 453 133C453 175 459 233 485 331Z" stroke="rgb(0,0,0)" stroke-opacity="1" stroke-width="8" fill="rgb(0,0,0)" fill-opacity="1"></path></g></g></g></g></g></g></g><g><g><g><g transform="matrix(1,0,0,1,225,242.5)"><path transform="matrix(0.017,0,0,-0.017,0,0)" d="M455 500C455 566 437 705 335 705C196 705 42 423 42 194C42 100 71 -11 162 -11C303 -11 455 276 455 500ZM389 562C389 513 381 462 357 363L148 363C165 427 185 507 225 578C252 627 289 683 334 683C383 683 389 619 389 562ZM348 331C337 285 316 200 278 128C243 60 205 11 162 11C129 11 108 40 108 133C108 175 114 233 140 331Z" stroke="rgb(0,0,0)" stroke-opacity="1" stroke-width="8" fill="rgb(0,0,0)" fill-opacity="1"></path></g></g></g></g><g><g><g><g transform="matrix(1,0,0,1,223.6171875,270.71875)"><path transform="matrix(0.017,0,0,-0.017,0,0)" d="M722 250C722 261 713 270 702 270L76 270C65 270 56 261 56 250C56 239 65 230 76 230L702 230C713 230 722 239 722 250Z" stroke="rgb(0,0,0)" stroke-opacity="1" stroke-width="8" fill="rgb(0,0,0)" fill-opacity="1"></path></g></g><g><g transform="matrix(1,0,0,1,236.84375,270.71875)"><path transform="matrix(0.017,0,0,-0.017,0,0)" d="M455 500C455 566 437 705 335 705C196 705 42 423 42 194C42 100 71 -11 162 -11C303 -11 455 276 455 500ZM389 562C389 513 381 462 357 363L148 363C165 427 185 507 225 578C252 627 289 683 334 683C383 683 389 619 389 562ZM348 331C337 285 316 200 278 128C243 60 205 11 162 11C129 11 108 40 108 133C108 175 114 233 140 331Z" stroke="rgb(0,0,0)" stroke-opacity="1" stroke-width="8" fill="rgb(0,0,0)" fill-opacity="1"></path></g></g></g></g><g><g><g><g transform="matrix(1,0,0,1,396,395.09375)"><path transform="matrix(0.017,0,0,-0.017,0,0)" d="M436 377C436 412 404 442 353 442C288 442 244 393 225 365C217 410 181 442 134 442C88 442 69 403 60 385C42 351 29 291 29 288C29 278 41 278 41 278C51 278 52 279 58 301C75 372 95 420 131 420C148 420 162 412 162 374C162 353 159 342 146 290L88 59C85 44 79 21 79 16C79 -2 93 -11 108 -11C120 -11 138 -3 145 17C147 21 181 157 185 175L217 305C221 318 249 365 273 387C281 394 310 420 353 420C379 420 395 408 395 408C365 403 343 379 343 353C343 337 354 318 381 318C408 318 436 341 436 377ZM881 107C881 113 875 120 869 120C864 120 862 118 856 110C777 11 668 11 656 11C578 11 569 95 569 127C569 139 570 170 585 231L638 231C667 231 741 233 791 254C861 284 866 343 866 357C866 401 828 442 759 442C648 442 497 345 497 170C497 68 556 -11 654 -11C797 -11 881 95 881 107ZM833 357C833 253 673 253 632 253L591 253C630 405 733 420 759 420C806 420 833 391 833 357Z" stroke="rgb(0,0,0)" stroke-opacity="1" stroke-width="8" fill="rgb(0,0,0)" fill-opacity="1"></path></g></g><g><g><g><g><g transform="matrix(1,0,0,1,412.5703125,388.4)"><path transform="matrix(0.0119,0,0,-0.0119,0,0)" d="M722 250C722 261 713 270 702 270L76 270C65 270 56 261 56 250C56 239 65 230 76 230L702 230C713 230 722 239 722 250ZM1062 625C1062 645 1048 661 1025 661C998 661 971 635 971 608C971 589 985 572 1009 572C1032 572 1062 595 1062 625ZM1071 143C1071 153 1062 153 1059 153C1049 153 1049 150 1044 135C1026 72 993 11 942 11C925 11 918 21 918 44C918 69 924 83 947 144L986 249C998 278 998 280 1008 307C1016 327 1021 341 1021 360C1021 405 989 442 939 442C845 442 807 297 807 288C807 278 819 278 819 278C829 278 830 280 835 296C862 390 902 420 936 420C944 420 961 420 961 388C961 367 954 346 950 336C942 310 897 194 881 151C871 125 858 92 858 71C858 24 892 -11 940 -11C1034 -11 1071 134 1071 143ZM1578 500C1578 566 1560 705 1458 705C1319 705 1165 423 1165 194C1165 100 1194 -11 1285 -11C1426 -11 1578 276 1578 500ZM1512 562C1512 513 1504 462 1480 363L1271 363C1288 427 1308 507 1348 578C1375 627 1412 683 1457 683C1506 683 1512 619 1512 562ZM1471 331C1460 285 1439 200 1401 128C1366 60 1328 11 1285 11C1252 11 1231 40 1231 133C1231 175 1237 233 1263 331Z" stroke="rgb(0,0,0)" stroke-opacity="1" stroke-width="8" fill="rgb(0,0,0)" fill-opacity="1"></path></g></g></g></g></g></g></g><g transform="matrix(0.8163392507171839,0.5775727034222676,-0.5775727034222676,0.8163392507171839,233.17374645019163,-113.32707575183366)"><g><g><g transform="matrix(1,0,0,1,289.55859375,316.27734375)"><path transform="matrix(0.017,0,0,-0.017,0,0)" d="M436 377C436 412 404 442 353 442C288 442 244 393 225 365C217 410 181 442 134 442C88 442 69 403 60 385C42 351 29 291 29 288C29 278 41 278 41 278C51 278 52 279 58 301C75 372 95 420 131 420C148 420 162 412 162 374C162 353 159 342 146 290L88 59C85 44 79 21 79 16C79 -2 93 -11 108 -11C120 -11 138 -3 145 17C147 21 181 157 185 175L217 305C221 318 249 365 273 387C281 394 310 420 353 420C379 420 395 408 395 408C365 403 343 379 343 353C343 337 354 318 381 318C408 318 436 341 436 377Z" stroke="rgb(0,0,0)" stroke-opacity="1" stroke-width="8" fill="rgb(0,0,0)" fill-opacity="1"></path></g></g></g></g><g transform="matrix(0.793990398647835,-0.6079302976946057,0.6079302976946057,0.793990398647835,-51.472989046604084,200.7292177211885)"><g><g><g transform="matrix(1,0,0,1,265.21484375,182.61328125)"><path transform="matrix(0.017,0,0,-0.017,0,0)" d="M436 377C436 412 404 442 353 442C288 442 244 393 225 365C217 410 181 442 134 442C88 442 69 403 60 385C42 351 29 291 29 288C29 278 41 278 41 278C51 278 52 279 58 301C75 372 95 420 131 420C148 420 162 412 162 374C162 353 159 342 146 290L88 59C85 44 79 21 79 16C79 -2 93 -11 108 -11C120 -11 138 -3 145 17C147 21 181 157 185 175L217 305C221 318 249 365 273 387C281 394 310 420 353 420C379 420 395 408 395 408C365 403 343 379 343 353C343 337 354 318 381 318C408 318 436 341 436 377Z" stroke="rgb(0,0,0)" stroke-opacity="1" stroke-width="8" fill="rgb(0,0,0)" fill-opacity="1"></path></g></g></g></g></svg>
</svg>
