<svg xmlns="http://www.w3.org/2000/svg" xmlns:xlink="http://www.w3.org/1999/xlink" x="0" y="0" width="682" height="361" style="
        width:682px;
        height:361px;
        background: #FFF;
        fill: none;
">
        <svg xmlns="http://www.w3.org/2000/svg"/>
        
        <svg xmlns="http://www.w3.org/2000/svg" class="role-diagram-draw-area"><g class="shapes-region" style="stroke: black; fill: none;"><g class="composite-shape"><path class="real" d=" M130.62,179.41 L307.46,120.55 L263.63,264.44 L86.8,323.3 Z" style="stroke-width: 1; stroke: rgb(0, 0, 0); fill: rgb(80, 227, 194); fill-opacity: 0.2;"/></g><g class="composite-shape axis2d" style="stroke-width: 1; stroke: rgb(0, 0, 0); stroke-opacity: 0.5;"><path class="real" d=" M54.44,323.3 L378,323.3 M86.8,22.5 L86.8,356.72"/><path d=" M371,318.3 L378,323.3 L371,328.3"/><path d=" M81.8,29.5 L86.8,22.5 L91.8,29.5"/></g><g class="composite-shape"><path class="real" d=" M257.28,264.44 C257.28,261.14 260.12,258.47 263.63,258.47 C267.14,258.47 269.98,261.14 269.98,264.44 C269.98,267.73 267.14,270.41 263.63,270.41 C260.12,270.41 257.28,267.73 257.28,264.44 Z" style="stroke-width: 1; stroke: rgb(0, 0, 0); fill: rgb(74, 144, 226); fill-opacity: 1;"/></g><g class="composite-shape"><path class="real" d=" M124.27,179.41 C124.27,176.11 127.12,173.44 130.62,173.44 C134.13,173.44 136.98,176.11 136.98,179.41 C136.98,182.7 134.13,185.37 130.62,185.37 C127.12,185.37 124.27,182.7 124.27,179.41 Z" style="stroke-width: 1; stroke: rgb(0, 0, 0); fill: rgb(74, 144, 226); fill-opacity: 1;"/></g><g/></g><g/><g/><g/></svg>
        <svg xmlns="http://www.w3.org/2000/svg" xmlns:xlink="http://www.w3.org/1999/xlink" width="680" height="359" style="width:680px;height:359px;font-family:LatinModern-Math, LatinModern, Asana-Math, Asana;background:#FFF;"><g><g><g><g transform="matrix(1,0,0,1,272.9765625,283.4296875)"><path transform="matrix(0.018,0,0,-0.018,0,0)" d="M332 -238C332 -235 330 -232 328 -230C224 -152 155 48 155 208L155 292C155 452 224 652 328 730C330 732 332 735 332 738C332 743 327 748 322 748C320 748 318 747 316 746C206 663 101 463 101 292L101 208C101 37 206 -163 316 -246C318 -247 320 -248 322 -248C327 -248 332 -243 332 -238Z" stroke="rgb(0,0,0)" stroke-opacity="1" stroke-width="8" fill="rgb(0,0,0)" fill-opacity="1"></path></g></g><g><g transform="matrix(1,0,0,1,279.984375,283.4296875)"><path transform="matrix(0.018,0,0,-0.018,0,0)" d="M498 143C498 153 489 153 486 153C476 153 475 149 472 135C455 70 437 11 396 11C369 11 366 37 366 57C366 79 368 87 379 131L401 221L437 361C444 389 444 391 444 395C444 412 432 422 415 422C391 422 376 400 373 378C355 415 326 442 281 442C164 442 40 295 40 149C40 55 95 -11 173 -11C193 -11 243 -7 303 64C311 22 346 -11 394 -11C429 -11 452 12 468 44C485 80 498 143 498 143ZM361 332C361 326 359 320 358 315L308 119C303 101 303 99 288 82C244 27 203 11 175 11C125 11 111 66 111 105C111 155 143 278 166 324C197 383 242 420 282 420C347 420 361 338 361 332Z" stroke="rgb(0,0,0)" stroke-opacity="1" stroke-width="8" fill="rgb(0,0,0)" fill-opacity="1"></path></g></g><g><g transform="matrix(1,0,0,1,289.5078125,283.4296875)"><path transform="matrix(0.018,0,0,-0.018,0,0)" d="M203 1C203 67 178 106 139 106C106 106 86 81 86 53C86 26 106 0 139 0C151 0 164 4 174 13C177 15 179 16 179 16C179 16 181 15 181 1C181 -73 146 -133 113 -166C102 -177 102 -179 102 -182C102 -189 107 -193 112 -193C123 -193 203 -116 203 1Z" stroke="rgb(0,0,0)" stroke-opacity="1" stroke-width="8" fill="rgb(0,0,0)" fill-opacity="1"></path></g></g><g><g transform="matrix(1,0,0,1,298.109375,283.4296875)"><path transform="matrix(0.018,0,0,-0.018,0,0)" d="M415 282C415 373 362 442 282 442C236 442 195 413 165 382L239 683C239 683 239 694 226 694C203 694 130 686 104 684C96 683 85 682 85 664C85 652 94 652 109 652C157 652 159 645 159 635C159 628 150 594 145 573L63 247C51 197 47 181 47 146C47 51 100 -11 174 -11C292 -11 415 138 415 282ZM343 326C343 267 310 152 292 114C259 47 213 11 174 11C140 11 107 38 107 112C107 131 107 150 123 213L145 305C151 327 151 329 160 340C209 405 254 420 280 420C316 420 343 390 343 326Z" stroke="rgb(0,0,0)" stroke-opacity="1" stroke-width="8" fill="rgb(0,0,0)" fill-opacity="1"></path></g></g><g><g transform="matrix(1,0,0,1,305.8359375,283.4296875)"><path transform="matrix(0.018,0,0,-0.018,0,0)" d="M288 208L288 292C288 463 183 663 73 746C71 747 69 748 67 748C62 748 57 743 57 738C57 735 59 732 61 730C165 652 234 452 234 292L234 208C234 48 165 -152 61 -230C59 -232 57 -235 57 -238C57 -243 62 -248 67 -248C69 -248 71 -247 73 -246C183 -163 288 37 288 208Z" stroke="rgb(0,0,0)" stroke-opacity="1" stroke-width="8" fill="rgb(0,0,0)" fill-opacity="1"></path></g></g></g></g><g><g><g><g transform="matrix(1,0,0,1,106.7265625,158)"><path transform="matrix(0.018,0,0,-0.018,0,0)" d="M332 -238C332 -235 330 -232 328 -230C224 -152 155 48 155 208L155 292C155 452 224 652 328 730C330 732 332 735 332 738C332 743 327 748 322 748C320 748 318 747 316 746C206 663 101 463 101 292L101 208C101 37 206 -163 316 -246C318 -247 320 -248 322 -248C327 -248 332 -243 332 -238Z" stroke="rgb(0,0,0)" stroke-opacity="1" stroke-width="8" fill="rgb(0,0,0)" fill-opacity="1"></path></g></g><g><g transform="matrix(1,0,0,1,113.734375,158)"><path transform="matrix(0.018,0,0,-0.018,0,0)" d="M430 107C430 113 424 120 418 120C413 120 411 118 405 110C326 11 217 11 205 11C142 11 115 60 115 120C115 161 135 258 169 320C200 377 255 420 310 420C344 420 382 407 396 380C380 380 366 380 352 366C336 351 334 334 334 327C334 303 352 292 371 292C400 292 427 316 427 356C427 405 380 442 309 442C174 442 41 299 41 158C41 68 99 -11 203 -11C346 -11 430 95 430 107Z" stroke="rgb(0,0,0)" stroke-opacity="1" stroke-width="8" fill="rgb(0,0,0)" fill-opacity="1"></path></g></g><g><g transform="matrix(1,0,0,1,121.53125,158)"><path transform="matrix(0.018,0,0,-0.018,0,0)" d="M203 1C203 67 178 106 139 106C106 106 86 81 86 53C86 26 106 0 139 0C151 0 164 4 174 13C177 15 179 16 179 16C179 16 181 15 181 1C181 -73 146 -133 113 -166C102 -177 102 -179 102 -182C102 -189 107 -193 112 -193C123 -193 203 -116 203 1Z" stroke="rgb(0,0,0)" stroke-opacity="1" stroke-width="8" fill="rgb(0,0,0)" fill-opacity="1"></path></g></g><g><g transform="matrix(1,0,0,1,130.1328125,158)"><path transform="matrix(0.018,0,0,-0.018,0,0)" d="M516 683C516 683 516 694 503 694C488 694 393 685 376 683C368 682 362 677 362 664C362 652 371 652 386 652C434 652 436 645 436 635L433 615L373 378C355 415 326 442 281 442C164 442 40 295 40 149C40 55 95 -11 173 -11C193 -11 243 -7 303 64C311 22 346 -11 394 -11C429 -11 452 12 468 44C485 80 498 143 498 143C498 153 489 153 486 153C476 153 475 149 472 135C455 70 437 11 396 11C369 11 366 37 366 57C366 81 368 88 372 105ZM361 332C361 326 359 320 358 315L308 119C303 101 303 99 288 82C244 27 203 11 175 11C125 11 111 66 111 105C111 155 143 278 166 324C197 383 242 420 282 420C347 420 361 338 361 332Z" stroke="rgb(0,0,0)" stroke-opacity="1" stroke-width="8" fill="rgb(0,0,0)" fill-opacity="1"></path></g></g><g><g transform="matrix(1,0,0,1,139.5,158)"><path transform="matrix(0.018,0,0,-0.018,0,0)" d="M288 208L288 292C288 463 183 663 73 746C71 747 69 748 67 748C62 748 57 743 57 738C57 735 59 732 61 730C165 652 234 452 234 292L234 208C234 48 165 -152 61 -230C59 -232 57 -235 57 -238C57 -243 62 -248 67 -248C69 -248 71 -247 73 -246C183 -163 288 37 288 208Z" stroke="rgb(0,0,0)" stroke-opacity="1" stroke-width="8" fill="rgb(0,0,0)" fill-opacity="1"></path></g></g></g></g></svg>
</svg>
