<svg xmlns="http://www.w3.org/2000/svg" xmlns:xlink="http://www.w3.org/1999/xlink" x="0" y="0" width="662" height="333.28125" style="
        width:662px;
        height:333.28125px;
        background: #FFF;
        fill: none;
">
        <svg xmlns="http://www.w3.org/2000/svg"/>
        
        <svg xmlns="http://www.w3.org/2000/svg" class="role-diagram-draw-area"><g class="shapes-region" style="stroke: black; fill: none;"><g class="composite-shape axis2d" style="stroke-width: 1; stroke: rgb(0, 0, 0);"><path class="real" d=" M148,253.2 L471.71,253.2 M180.37,40 L180.37,276.88"/><path d=" M464.71,248.2 L471.71,253.2 L464.71,258.2"/><path d=" M175.37,47 L180.37,40 L185.37,47"/></g><g class="arrow-line"><path class="connection real" stroke-dasharray="" d="  M378.06,127.88 L378.06,252.88" style="stroke: rgb(0, 0, 0); stroke-width: 1; fill: none; fill-opacity: 1;"/></g><g class="arrow-line"><path class="connection real" stroke-dasharray="" d="  M377.06,120.94 L180.71,120.94" style="stroke: rgb(0, 0, 0); stroke-width: 1; fill: none; fill-opacity: 1;"/></g><g class="composite-shape"><path class="real" d=" M372.12,121.94 C372.12,118.66 374.78,116 378.06,116 C381.34,116 384,118.66 384,121.94 C384,125.22 381.34,127.88 378.06,127.88 C374.78,127.88 372.12,125.22 372.12,121.94 Z" style="stroke-width: 1; stroke: rgb(0, 0, 0); fill: rgb(74, 144, 226); fill-opacity: 1;"/></g><g class="arrow-line"><path class="connection real" stroke-dasharray="" d="  M180.37,253.2 L376.39,123.05" style="stroke: rgb(0, 0, 0); stroke-width: 1; fill: none; fill-opacity: 1;"/><g stroke="#000" transform="matrix(-0.8331143600534537,0.5531007711735034,-0.5531007711735034,-0.8331143600534537,378.0580368041992,121.94196319580078)" style="stroke: rgb(0, 0, 0); stroke-width: 1;"><path d=" M10.93,-3.29 Q4.96,-0.45 0,0 Q4.96,0.45 10.93,3.29"/></g></g><g class="composite-shape"><path class="real" d=" M209.23,234.17 C215.12,238.68 219.36,245.37 220.62,253.22 L191,258 Z" style="stroke-width: 1; stroke: none; fill: none; fill-opacity: 1;"/><path class="real" d=" M209.23,234.17 C215.12,238.68 219.36,245.37 220.62,253.22" style="stroke-width: 1; stroke: rgb(0, 0, 0); fill: none; fill-opacity: 1;"/></g><g/></g><g/><g/><g/></svg>
        <svg xmlns="http://www.w3.org/2000/svg" xmlns:xlink="http://www.w3.org/1999/xlink" width="660" height="331.28125" style="width:660px;height:331.28125px;font-family:LatinModern-Math, LatinModern, Asana-Math, Asana;background:#FFF;"><g><g><g><g><g><g><text x="488" y="248" style="white-space:pre;stroke:none;fill:rgb(0,0,0);fill-opacity:1;font-size:15px;font-family:&quot;Courier New&quot;, Courier, monospace;font-weight:400;font-style:normal;dominant-baseline:text-before-edge;text-decoration:none solid rgb(0, 0, 0);">Re</text></g></g></g></g><g><g transform="matrix(1,0,0,1,506.0078125,261)"><path transform="matrix(0.017,0,0,-0.017,0,0)" d="M332 -238C332 -235 330 -232 328 -230C224 -152 155 48 155 208L155 292C155 452 224 652 328 730C330 732 332 735 332 738C332 743 327 748 322 748C320 748 318 747 316 746C206 663 101 463 101 292L101 208C101 37 206 -163 316 -246C318 -247 320 -248 322 -248C327 -248 332 -243 332 -238Z" stroke="rgb(0,0,0)" stroke-opacity="1" stroke-width="8" fill="rgb(0,0,0)" fill-opacity="1"></path></g></g><g><g transform="matrix(1,0,0,1,512.625,260.5)"><path transform="matrix(0.017,0,0,-0.017,0,0)" d="M467 432C467 442 456 442 456 442C449 442 446 440 441 431C411 383 390 367 366 367C342 367 330 382 315 399C296 422 279 442 246 442C171 442 125 349 125 328C125 323 128 317 137 317C146 317 148 322 150 328C169 374 227 375 235 375C256 375 275 368 298 360C338 345 349 345 375 345C339 302 255 230 236 214L146 130C78 63 43 6 43 -1C43 -11 55 -11 55 -11C63 -11 65 -9 71 2C94 37 124 64 156 64C179 64 189 55 214 26C231 5 249 -11 278 -11C377 -11 435 116 435 143C435 148 431 153 423 153C414 153 412 147 409 140C386 75 322 56 289 56C269 56 251 62 230 69C196 82 181 86 160 86C160 86 142 86 133 83C187 141 216 166 252 197C252 197 314 251 350 287C445 380 467 428 467 432Z" stroke="rgb(0,0,0)" stroke-opacity="1" stroke-width="8" fill="rgb(0,0,0)" fill-opacity="1"></path></g></g><g><g transform="matrix(1,0,0,1,520.53125,261)"><path transform="matrix(0.017,0,0,-0.017,0,0)" d="M288 208L288 292C288 463 183 663 73 746C71 747 69 748 67 748C62 748 57 743 57 738C57 735 59 732 61 730C165 652 234 452 234 292L234 208C234 48 165 -152 61 -230C59 -232 57 -235 57 -238C57 -243 62 -248 67 -248C69 -248 71 -247 73 -246C183 -163 288 37 288 208Z" stroke="rgb(0,0,0)" stroke-opacity="1" stroke-width="8" fill="rgb(0,0,0)" fill-opacity="1"></path></g></g></g></g><g><g><g><g><g><g><text x="161" y="10" style="white-space:pre;stroke:none;fill:rgb(0,0,0);fill-opacity:1;font-size:15px;font-family:&quot;Courier New&quot;, Courier, monospace;font-weight:400;font-style:normal;dominant-baseline:text-before-edge;text-decoration:none solid rgb(0, 0, 0);">Im</text></g></g></g></g><g><g transform="matrix(1,0,0,1,179.0078125,23)"><path transform="matrix(0.017,0,0,-0.017,0,0)" d="M332 -238C332 -235 330 -232 328 -230C224 -152 155 48 155 208L155 292C155 452 224 652 328 730C330 732 332 735 332 738C332 743 327 748 322 748C320 748 318 747 316 746C206 663 101 463 101 292L101 208C101 37 206 -163 316 -246C318 -247 320 -248 322 -248C327 -248 332 -243 332 -238Z" stroke="rgb(0,0,0)" stroke-opacity="1" stroke-width="8" fill="rgb(0,0,0)" fill-opacity="1"></path></g></g><g><g transform="matrix(1,0,0,1,185.625,22.5)"><path transform="matrix(0.017,0,0,-0.017,0,0)" d="M467 432C467 442 456 442 456 442C449 442 446 440 441 431C411 383 390 367 366 367C342 367 330 382 315 399C296 422 279 442 246 442C171 442 125 349 125 328C125 323 128 317 137 317C146 317 148 322 150 328C169 374 227 375 235 375C256 375 275 368 298 360C338 345 349 345 375 345C339 302 255 230 236 214L146 130C78 63 43 6 43 -1C43 -11 55 -11 55 -11C63 -11 65 -9 71 2C94 37 124 64 156 64C179 64 189 55 214 26C231 5 249 -11 278 -11C377 -11 435 116 435 143C435 148 431 153 423 153C414 153 412 147 409 140C386 75 322 56 289 56C269 56 251 62 230 69C196 82 181 86 160 86C160 86 142 86 133 83C187 141 216 166 252 197C252 197 314 251 350 287C445 380 467 428 467 432Z" stroke="rgb(0,0,0)" stroke-opacity="1" stroke-width="8" fill="rgb(0,0,0)" fill-opacity="1"></path></g></g><g><g transform="matrix(1,0,0,1,193.53125,23)"><path transform="matrix(0.017,0,0,-0.017,0,0)" d="M288 208L288 292C288 463 183 663 73 746C71 747 69 748 67 748C62 748 57 743 57 738C57 735 59 732 61 730C165 652 234 452 234 292L234 208C234 48 165 -152 61 -230C59 -232 57 -235 57 -238C57 -243 62 -248 67 -248C69 -248 71 -247 73 -246C183 -163 288 37 288 208Z" stroke="rgb(0,0,0)" stroke-opacity="1" stroke-width="8" fill="rgb(0,0,0)" fill-opacity="1"></path></g></g></g></g><g><g><g><g transform="matrix(1,0,0,1,399,112.5)"><path transform="matrix(0.017,0,0,-0.017,0,0)" d="M498 143C498 153 489 153 486 153C476 153 475 149 472 135C455 70 437 11 396 11C369 11 366 37 366 57C366 79 368 87 379 131L401 221L437 361C444 389 444 391 444 395C444 412 432 422 415 422C391 422 376 400 373 378C355 415 326 442 281 442C164 442 40 295 40 149C40 55 95 -11 173 -11C193 -11 243 -7 303 64C311 22 346 -11 394 -11C429 -11 452 12 468 44C485 80 498 143 498 143ZM361 332C361 326 359 320 358 315L308 119C303 101 303 99 288 82C244 27 203 11 175 11C125 11 111 66 111 105C111 155 143 278 166 324C197 383 242 420 282 420C347 420 361 338 361 332Z" stroke="rgb(0,0,0)" stroke-opacity="1" stroke-width="8" fill="rgb(0,0,0)" fill-opacity="1"></path></g></g><g><g transform="matrix(1,0,0,1,411.3984375,112.5)"><path transform="matrix(0.017,0,0,-0.017,0,0)" d="M722 250C722 261 713 270 702 270L409 270L409 563C409 574 400 583 389 583C378 583 369 574 369 563L369 270L76 270C65 270 56 261 56 250C56 239 65 230 76 230L369 230L369 -63C369 -74 378 -83 389 -83C400 -83 409 -74 409 -63L409 230L702 230C713 230 722 239 722 250Z" stroke="rgb(0,0,0)" stroke-opacity="1" stroke-width="8" fill="rgb(0,0,0)" fill-opacity="1"></path></g></g><g><g transform="matrix(1,0,0,1,428.0234375,112.5)"><path transform="matrix(0.017,0,0,-0.017,0,0)" d="M284 625C284 645 270 661 247 661C220 661 193 635 193 608C193 589 207 572 231 572C254 572 284 595 284 625ZM293 143C293 153 284 153 281 153C271 153 271 150 266 135C248 72 215 11 164 11C147 11 140 21 140 44C140 69 146 83 169 144L208 249C220 278 220 280 230 307C238 327 243 341 243 360C243 405 211 442 161 442C67 442 29 297 29 288C29 278 41 278 41 278C51 278 52 280 57 296C84 390 124 420 158 420C166 420 183 420 183 388C183 367 176 346 172 336C164 310 119 194 103 151C93 125 80 92 80 71C80 24 114 -11 162 -11C256 -11 293 134 293 143ZM760 282C760 373 707 442 627 442C581 442 540 413 510 382L584 683C584 683 584 694 571 694C548 694 475 686 449 684C441 683 430 682 430 664C430 652 439 652 454 652C502 652 504 645 504 635C504 628 495 594 490 573L408 247C396 197 392 181 392 146C392 51 445 -11 519 -11C637 -11 760 138 760 282ZM688 326C688 267 655 152 637 114C604 47 558 11 519 11C485 11 452 38 452 112C452 131 452 150 468 213L490 305C496 327 496 329 505 340C554 405 599 420 625 420C661 420 688 390 688 326Z" stroke="rgb(0,0,0)" stroke-opacity="1" stroke-width="8" fill="rgb(0,0,0)" fill-opacity="1"></path></g></g></g></g><g><g><g><g transform="matrix(1,0,0,1,225,242.5)"><path transform="matrix(0.017,0,0,-0.017,0,0)" d="M455 500C455 566 437 705 335 705C196 705 42 423 42 194C42 100 71 -11 162 -11C303 -11 455 276 455 500ZM389 562C389 513 381 462 357 363L148 363C165 427 185 507 225 578C252 627 289 683 334 683C383 683 389 619 389 562ZM348 331C337 285 316 200 278 128C243 60 205 11 162 11C129 11 108 40 108 133C108 175 114 233 140 331Z" stroke="rgb(0,0,0)" stroke-opacity="1" stroke-width="8" fill="rgb(0,0,0)" fill-opacity="1"></path></g></g></g></g><g transform="matrix(0.8318572708386351,-0.5549896223830654,0.5549896223830654,0.8318572708386351,-49.2003156016541,179.46362519220017)"><g><g><g><g><g><g transform="matrix(1,0,0,1,253.97265625,181.0234375)"><path transform="matrix(0.017,0,0,-0.017,0,0)" d="M498 143C498 153 489 153 486 153C476 153 475 149 472 135C455 70 437 11 396 11C369 11 366 37 366 57C366 79 368 87 379 131L401 221L437 361C444 389 444 391 444 395C444 412 432 422 415 422C391 422 376 400 373 378C355 415 326 442 281 442C164 442 40 295 40 149C40 55 95 -11 173 -11C193 -11 243 -7 303 64C311 22 346 -11 394 -11C429 -11 452 12 468 44C485 80 498 143 498 143ZM361 332C361 326 359 320 358 315L308 119C303 101 303 99 288 82C244 27 203 11 175 11C125 11 111 66 111 105C111 155 143 278 166 324C197 383 242 420 282 420C347 420 361 338 361 332Z" stroke="rgb(0,0,0)" stroke-opacity="1" stroke-width="8" fill="rgb(0,0,0)" fill-opacity="1"></path></g></g><g><g><g><g><g transform="matrix(1,0,0,1,263.94921875,174.8296875)"><path transform="matrix(0.0119,0,0,-0.0119,0,0)" d="M449 174L424 174C419 144 412 100 402 85C395 77 329 77 307 77L127 77L233 180C389 318 449 372 449 472C449 586 359 666 237 666C124 666 50 574 50 485C50 429 100 429 103 429C120 429 155 441 155 482C155 508 137 534 102 534C94 534 92 534 89 533C112 598 166 635 224 635C315 635 358 554 358 472C358 392 308 313 253 251L61 37C50 26 50 24 50 0L421 0Z" stroke="rgb(0,0,0)" stroke-opacity="1" stroke-width="8" fill="rgb(0,0,0)" fill-opacity="1"></path></g></g></g></g></g><g><g transform="matrix(1,0,0,1,274.31640625,181.0234375)"><path transform="matrix(0.017,0,0,-0.017,0,0)" d="M722 250C722 261 713 270 702 270L409 270L409 563C409 574 400 583 389 583C378 583 369 574 369 563L369 270L76 270C65 270 56 261 56 250C56 239 65 230 76 230L369 230L369 -63C369 -74 378 -83 389 -83C400 -83 409 -74 409 -63L409 230L702 230C713 230 722 239 722 250Z" stroke="rgb(0,0,0)" stroke-opacity="1" stroke-width="8" fill="rgb(0,0,0)" fill-opacity="1"></path></g></g><g><g transform="matrix(1,0,0,1,290.94140625,181.0234375)"><path transform="matrix(0.017,0,0,-0.017,0,0)" d="M415 282C415 373 362 442 282 442C236 442 195 413 165 382L239 683C239 683 239 694 226 694C203 694 130 686 104 684C96 683 85 682 85 664C85 652 94 652 109 652C157 652 159 645 159 635C159 628 150 594 145 573L63 247C51 197 47 181 47 146C47 51 100 -11 174 -11C292 -11 415 138 415 282ZM343 326C343 267 310 152 292 114C259 47 213 11 174 11C140 11 107 38 107 112C107 131 107 150 123 213L145 305C151 327 151 329 160 340C209 405 254 420 280 420C316 420 343 390 343 326Z" stroke="rgb(0,0,0)" stroke-opacity="1" stroke-width="8" fill="rgb(0,0,0)" fill-opacity="1"></path></g></g><g><g><g><g><g transform="matrix(1,0,0,1,299.21484375,174.8296875)"><path transform="matrix(0.0119,0,0,-0.0119,0,0)" d="M449 174L424 174C419 144 412 100 402 85C395 77 329 77 307 77L127 77L233 180C389 318 449 372 449 472C449 586 359 666 237 666C124 666 50 574 50 485C50 429 100 429 103 429C120 429 155 441 155 482C155 508 137 534 102 534C94 534 92 534 89 533C112 598 166 635 224 635C315 635 358 554 358 472C358 392 308 313 253 251L61 37C50 26 50 24 50 0L421 0Z" stroke="rgb(0,0,0)" stroke-opacity="1" stroke-width="8" fill="rgb(0,0,0)" fill-opacity="1"></path></g></g></g></g></g></g></g><svg x="236.97265625" overflow="visible" y="160.9296875" height="17" width="69.2109375"><polygon points="0.35,11.88 4.79,9.51 9.60,19.71 16.36,0.00 69.21,0.00 69.21,1.05 17.09,1.05 9.18,24.18 3.10,11.44 0.64,12.36" style="fill:rgb(0,0,0);fill-opacity:1;stroke-width:1px;stroke:none;stroke-opacity:1;"></polygon></svg></g></g></g><g><g><g><g transform="matrix(1,0,0,1,286,277.5)"><path transform="matrix(0.017,0,0,-0.017,0,0)" d="M498 143C498 153 489 153 486 153C476 153 475 149 472 135C455 70 437 11 396 11C369 11 366 37 366 57C366 79 368 87 379 131L401 221L437 361C444 389 444 391 444 395C444 412 432 422 415 422C391 422 376 400 373 378C355 415 326 442 281 442C164 442 40 295 40 149C40 55 95 -11 173 -11C193 -11 243 -7 303 64C311 22 346 -11 394 -11C429 -11 452 12 468 44C485 80 498 143 498 143ZM361 332C361 326 359 320 358 315L308 119C303 101 303 99 288 82C244 27 203 11 175 11C125 11 111 66 111 105C111 155 143 278 166 324C197 383 242 420 282 420C347 420 361 338 361 332Z" stroke="rgb(0,0,0)" stroke-opacity="1" stroke-width="8" fill="rgb(0,0,0)" fill-opacity="1"></path></g></g></g></g><g><g><g><g transform="matrix(1,0,0,1,390,194.5)"><path transform="matrix(0.017,0,0,-0.017,0,0)" d="M415 282C415 373 362 442 282 442C236 442 195 413 165 382L239 683C239 683 239 694 226 694C203 694 130 686 104 684C96 683 85 682 85 664C85 652 94 652 109 652C157 652 159 645 159 635C159 628 150 594 145 573L63 247C51 197 47 181 47 146C47 51 100 -11 174 -11C292 -11 415 138 415 282ZM343 326C343 267 310 152 292 114C259 47 213 11 174 11C140 11 107 38 107 112C107 131 107 150 123 213L145 305C151 327 151 329 160 340C209 405 254 420 280 420C316 420 343 390 343 326Z" stroke="rgb(0,0,0)" stroke-opacity="1" stroke-width="8" fill="rgb(0,0,0)" fill-opacity="1"></path></g></g></g></g></svg>
</svg>
