<svg xmlns="http://www.w3.org/2000/svg" xmlns:xlink="http://www.w3.org/1999/xlink" x="0" y="0" width="681.1428833007812" height="311.14288330078125" style="
        width:681.1428833007812px;
        height:311.14288330078125px;
        background: #FFF;
        fill: none;
">
        <svg xmlns="http://www.w3.org/2000/svg"/>
        
        <svg xmlns="http://www.w3.org/2000/svg" class="role-diagram-draw-area"><g class="shapes-region" style="stroke: black; fill: none;"><g class="composite-shape" data-amt="diagram/shapes/plot" transform="matrix(1,0,0,1,14,27)"><g><g><g class="test-xgi"><line x1="50.148095999999974" y1="0" x2="50.148095999999974" y2="270" fill="none" stroke="#c3c3c3" stroke-width="0.5"/><line x1="104.67404799999997" y1="0" x2="104.67404799999997" y2="270" fill="none" stroke="#c3c3c3" stroke-width="0.5"/><line x1="159.2" y1="0" x2="159.2" y2="270" fill="none" stroke="#c3c3c3" stroke-width="0.5"/><line x1="213.725952" y1="0" x2="213.725952" y2="270" fill="none" stroke="#c3c3c3" stroke-width="0.5"/><line x1="268.251904" y1="0" x2="268.251904" y2="270" fill="none" stroke="#c3c3c3" stroke-width="0.5"/><line x1="322.77785600000004" y1="0" x2="322.77785600000004" y2="270" fill="none" stroke="#c3c3c3" stroke-width="0.5"/><line x1="377.303808" y1="0" x2="377.303808" y2="270" fill="none" stroke="#c3c3c3" stroke-width="0.5"/></g><g class="test-ygi"><line x1="0" y1="241.15443199999999" x2="399.7142791748047" y2="241.15443199999999" fill="none" stroke="#c3c3c3" stroke-width="0.5"/><line x1="0" y1="186.62847999999997" x2="399.7142791748047" y2="186.62847999999997" fill="none" stroke="#c3c3c3" stroke-width="0.5"/><line x1="0" y1="132.10252799999998" x2="399.7142791748047" y2="132.10252799999998" fill="none" stroke="#c3c3c3" stroke-width="0.5"/><line x1="0" y1="77.57657599999996" x2="399.7142791748047" y2="77.57657599999996" fill="none" stroke="#c3c3c3" stroke-width="0.5"/><line x1="0" y1="23.05062399999997" x2="399.7142791748047" y2="23.05062399999997" fill="none" stroke="#c3c3c3" stroke-width="0.5"/></g></g><g><g class="test-xti" style="font-family: Asana-Math, Asana;"><line x1="0" y1="186.62847999999997" x2="395.7142791748047" y2="186.62847999999997" fill="none" stroke="rgb(50,50,50)" stroke-opacity="1" stroke-width="1"/><line x1="50.148095999999974" y1="182.62847999999997" x2="50.148095999999974" y2="190.62847999999997" fill="none" stroke="rgb(50,50,50)" stroke-opacity="1" stroke-width="1"/><line x1="104.67404799999997" y1="182.62847999999997" x2="104.67404799999997" y2="190.62847999999997" fill="none" stroke="rgb(50,50,50)" stroke-opacity="1" stroke-width="1"/><line x1="213.725952" y1="182.62847999999997" x2="213.725952" y2="190.62847999999997" fill="none" stroke="rgb(50,50,50)" stroke-opacity="1" stroke-width="1"/><line x1="268.251904" y1="182.62847999999997" x2="268.251904" y2="190.62847999999997" fill="none" stroke="rgb(50,50,50)" stroke-opacity="1" stroke-width="1"/><line x1="322.77785600000004" y1="182.62847999999997" x2="322.77785600000004" y2="190.62847999999997" fill="none" stroke="rgb(50,50,50)" stroke-opacity="1" stroke-width="1"/><line x1="377.303808" y1="182.62847999999997" x2="377.303808" y2="190.62847999999997" fill="none" stroke="rgb(50,50,50)" stroke-opacity="1" stroke-width="1"/><path d="M390.7142791748047,183.02847999999997 L398.7142791748047,186.62847999999997 L390.7142791748047,190.22847999999996 Z" stroke="none" stroke-width="1" fill="rgb(50,50,50)" fill-opacity="1"/></g><g class="test-yti" style="font-family: Asana-Math, Asana;"><line x1="159.2" y1="4" x2="159.2" y2="270" fill="none" stroke="rgb(50,50,50)" stroke-opacity="1" stroke-width="1"/><line x1="155.2" y1="241.15443199999999" x2="163.2" y2="241.15443199999999" fill="none" stroke="rgb(50,50,50)" stroke-opacity="1" stroke-width="1"/><line x1="155.2" y1="132.10252799999998" x2="163.2" y2="132.10252799999998" fill="none" stroke="rgb(50,50,50)" stroke-opacity="1" stroke-width="1"/><line x1="155.2" y1="77.57657599999996" x2="163.2" y2="77.57657599999996" fill="none" stroke="rgb(50,50,50)" stroke-opacity="1" stroke-width="1"/><line x1="155.2" y1="23.05062399999997" x2="163.2" y2="23.05062399999997" fill="none" stroke="rgb(50,50,50)" stroke-opacity="1" stroke-width="1"/><path d="M155.6,9 L159.2,1 L162.79999999999998,9 Z" stroke="none" stroke-width="1" fill="rgb(50,50,50)" fill-opacity="1"/></g><g class="test-plot-expression"><defs><clipPath id="cpocr3u6gma"><rect x="1" y="1" width="397.7142791748047" height="268"/></clipPath></defs><g clip-path="url(#cpocr3u6gma)"><g><g class="arrow-line"><path class="vector-plot real" stroke-dasharray="" d="  M159.2,186.63 L210.19,135.64" style="stroke: rgb(68, 128, 194); stroke-opacity: 1; stroke-width: 3;"/><g stroke="none" fill="rgb(68,128,194)" fill-opacity="1" transform="matrix(-0.7071067811865479,0.7071067811865471,-0.7071067811865471,-0.7071067811865479,213.72595199999995,132.10252799999998)" style="stroke: none; fill: rgb(68, 128, 194); stroke-width: 3;"><path d=" M14.29,-6.86 L0,0 L14.29,6.86 Z"/></g></g></g><g><g class="arrow-line"><path class="vector-plot real" stroke-dasharray="" d="  M159.2,186.63 L265.42,80.41" style="stroke: rgb(60, 180, 75); stroke-opacity: 1; stroke-width: 2;"/><g stroke="none" fill="rgb(60,180,75)" fill-opacity="1" transform="matrix(-0.7071067811865479,0.7071067811865471,-0.7071067811865471,-0.7071067811865479,268.25190399999997,77.57657599999996)" style="stroke: none; fill: rgb(60, 180, 75); stroke-width: 2;"><path d=" M11.61,-5.58 L0,0 L11.61,5.58 Z"/></g></g></g></g></g><g class="test-xtl" style="font-family: &quot;Open Sans&quot;, verdana, arial, sans-serif;"><text text-anchor="middle" font-size="11" dominant-baseline="hanging" stroke="none" fill="rgb(50,50,50)" fill-opacity="1" x="47.013095999999976" y="193.62847999999997">-2</text><text text-anchor="middle" font-size="11" dominant-baseline="hanging" stroke="none" fill="rgb(50,50,50)" fill-opacity="1" x="101.53904799999997" y="193.62847999999997">-1</text><text text-anchor="middle" font-size="11" dominant-baseline="hanging" stroke="none" fill="rgb(50,50,50)" fill-opacity="1" x="213.725952" y="193.62847999999997">1</text><text text-anchor="middle" font-size="11" dominant-baseline="hanging" stroke="none" fill="rgb(50,50,50)" fill-opacity="1" x="268.251904" y="193.62847999999997">2</text><text text-anchor="middle" font-size="11" dominant-baseline="hanging" stroke="none" fill="rgb(50,50,50)" fill-opacity="1" x="322.77785600000004" y="193.62847999999997">3</text><text text-anchor="middle" font-size="11" dominant-baseline="hanging" stroke="none" fill="rgb(50,50,50)" fill-opacity="1" x="377.303808" y="193.62847999999997">4</text><text text-anchor="middle" font-size="11" dominant-baseline="hanging" stroke="none" fill="rgb(50,50,50)" fill-opacity="1" x="151.2" y="191.62847999999997">0</text></g><g class="test-ytl" style="font-family: &quot;Open Sans&quot;, verdana, arial, sans-serif;"><text text-anchor="end" dominant-baseline="middle" font-size="11" stroke="none" fill="rgb(50,50,50)" fill-opacity="1" x="151.2" y="241.15443199999999">-1</text><text text-anchor="end" dominant-baseline="middle" font-size="11" stroke="none" fill="rgb(50,50,50)" fill-opacity="1" x="151.2" y="132.10252799999998">1</text><text text-anchor="end" dominant-baseline="middle" font-size="11" stroke="none" fill="rgb(50,50,50)" fill-opacity="1" x="151.2" y="77.57657599999996">2</text><text text-anchor="end" dominant-baseline="middle" font-size="11" stroke="none" fill="rgb(50,50,50)" fill-opacity="1" x="151.2" y="23.05062399999997">3</text></g><rect class="real" x="1" y="1" width="397.7142791748047" height="268" style="fill: transparent; stroke: none;"/></g></g></g><g/></g><g/><g/><g/></svg>
        <svg xmlns="http://www.w3.org/2000/svg" xmlns:xlink="http://www.w3.org/1999/xlink" width="680" height="310" style="width:680px;height:310px;font-family:LatinModern-Math, LatinModern, Asana-Math, Asana;background:#FFF;"><g><g><g><g transform="matrix(1,0,0,1,288.5714569091797,121.99998474121094)"><path transform="matrix(0.018,0,0,-0.018,0,0)" d="M468 372C468 426 442 442 424 442C399 442 375 416 375 394C375 381 380 375 391 364C412 344 425 318 425 282C425 240 364 11 247 11C196 11 173 46 173 98C173 154 200 227 231 310C238 327 243 341 243 360C243 405 211 442 161 442C67 442 29 297 29 288C29 278 41 278 41 278C51 278 52 280 57 296C86 397 129 420 158 420C166 420 183 420 183 388C183 363 173 336 166 318C122 202 109 156 109 113C109 5 197 -11 243 -11C411 -11 468 320 468 372Z" stroke="rgb(0,0,0)" stroke-opacity="1" stroke-width="8" fill="rgb(0,0,0)" fill-opacity="1"></path></g></g></g></g><g><g><g><g transform="matrix(1,0,0,1,232.57142639160156,179.00001525878906)"><path transform="matrix(0.018,0,0,-0.018,0,0)" d="M543 143C543 153 534 153 531 153C521 153 520 149 517 135C503 79 484 11 442 11C421 11 411 24 411 57C411 79 423 126 431 161L459 269C462 284 472 322 476 337C481 360 491 398 491 404C491 422 477 431 462 431C457 431 431 430 423 396L348 95C347 91 307 11 234 11C182 11 172 56 172 93C172 149 200 228 226 297C238 327 243 341 243 360C243 405 211 442 161 442C66 442 29 297 29 288C29 278 41 278 41 278C51 278 52 280 57 296C82 383 120 420 158 420C167 420 183 419 183 387C183 363 172 334 166 319C129 220 108 158 108 109C108 14 177 -11 231 -11C297 -11 333 34 350 56C361 15 396 -11 439 -11C474 -11 497 12 513 44C530 80 543 143 543 143Z" stroke="rgb(0,0,0)" stroke-opacity="1" stroke-width="8" fill="rgb(0,0,0)" fill-opacity="1"></path></g></g></g></g></svg>
</svg>
